<svg width="40" height="41" viewBox="0 0 40 41" fill="none" xmlns="http://www.w3.org/2000/svg">
<path d="M18.75 15.8818C18.75 17.9529 17.0711 19.6318 15 19.6318C12.9289 19.6318 11.25 17.9529 11.25 15.8818C11.25 13.8108 12.9289 12.1318 15 12.1318C17.0711 12.1318 18.75 13.8108 18.75 15.8818Z" fill="white" fill-opacity="0.5"/>
<path d="M8 29.1318H22V25.9165C22 24.8102 21.2372 23.7526 20 22.965C18.7295 22.1561 16.9587 21.6318 15 21.6318C11.134 21.6318 8 23.6741 8 25.9165V29.1318Z" fill="white" fill-opacity="0.5"/>
<path d="M32 29.1318H23.75V25.9165C23.75 24.3572 22.9082 23.068 21.8045 22.1265C22.7625 21.8129 23.8488 21.6318 25 21.6318C28.866 21.6318 32 23.6741 32 25.9165V29.1318Z" fill="white" fill-opacity="0.5"/>
<path d="M25 19.6318C27.0711 19.6318 28.75 17.9529 28.75 15.8818C28.75 13.8108 27.0711 12.1318 25 12.1318C22.9289 12.1318 21.25 13.8108 21.25 15.8818C21.25 17.9529 22.9289 19.6318 25 19.6318Z" fill="white" fill-opacity="0.5"/>
</svg>
